<svg xmlns="http://www.w3.org/2000/svg" viewBox="0 0 512 512" fill="none">
  <rect width="512" height="512" rx="128" fill="#0B0C10"/>
  <rect x="16" y="16" width="480" height="480" rx="112" stroke="#00E5FF" stroke-width="8" stroke-opacity="0.3"/>
  <g transform="translate(106, 106) scale(12.5)" stroke="#00E5FF" stroke-width="1.8" stroke-linecap="round" stroke-linejoin="round" fill="none">
    <path d="M21 8a2 2 0 0 0-1-1.73l-7-4a2 2 0 0 0-2 0l-7 4A2 2 0 0 0 3 8v8a2 2 0 0 0 1 1.73l7 4a2 2 0 0 0 2 0l7-4A2 2 0 0 0 21 16Z" />
    <path d="m3.3 7 8.7 5 8.7-5" />
    <path d="M12 12v10" />
  </g>
</svg>
